# xmcd
#
# Track frame offsets:
#	150
#	12407
#	27134
#	41001
#	48014
#	57198
#	70677
#	83168
#	95781
#	110363
#	125004
#	132731
#	146839
#	161752
#	177846
#	197307
#	213588
#	230237
#	242664
#
# Disc length: 3465 seconds
#
# Revision: 1
# Processed by: cddbd v1.5.2PL0 Copyright (c) Steve Scherf et al.
# Submitted via: audiograbber 1.83.01
#
DISCID=120d8713
DTITLE=Hokum Hotshots - Old Hat
DYEAR=2013
DGENRE=Blues
TTITLE0=Broken Levee Blues
TTITLE1=Railroad Blues
TTITLE2=Oh Death
TTITLE3=Dallas Rag
TTITLE4=Red Hot Blues
TTITLE5=When I Been Drinking
TTITLE6=Second Hand Woman
TTITLE7=Iron Horse
TTITLE8=Trouble in Mind
TTITLE9=WPA Blues
TTITLE10=Travelling Shoes
TTITLE11=You Just As Well Let Her Go
TTITLE12=Preachers Blues
TTITLE13=You'll Miss Me When I'm Gone
TTITLE14=Morning Blues
TTITLE15=How Come You Ain't Rich?
TTITLE16=Winnie The Wailer
TTITLE17=Palakiko Blues
TTITLE18=Darktown Poker Club
EXTD=
EXTT0=Tom Dorsey, 2.45
EXTT1=Hauulea Entertainers, 3.18
EXTT2=Charlie Patton, 3.07
EXTT3=Dallas String Band, 1.35
EXTT4=William Weldon, 2.04
EXTT5=Big Bill Broonzy, 3.04
EXTT6=Tom Dorsey, 2.48
EXTT7=Brian Cookman, 2.48
EXTT8=Trad. arr. HH, 3.17
EXTT9=William Weldon, 3.18
EXTT10=Trad. arr. HH, 1.45
EXTT11=William Weldon, 3.12
EXTT12=Joe McCoy, 3.20
EXTT13=Cliff Carlisle, 3.37
EXTT14=Trad. arr. HH, 4.20
EXTT15=Louis Jordan, 3.40
EXTT16=Lonnie Johnson, 3.46
EXTT17=Franchini and Dettborn, 2.48
EXTT18=Williams/Vodery/Havez, 3.51
PLAYORDER=
